<svg width="15" height="15" viewBox="0 0 15 15" fill="none" xmlns="http://www.w3.org/2000/svg">
<path d="M14.6734 1.91878C15.1082 1.48397 15.1073 0.778141 14.6739 0.344751L14.6552 0.326093C14.2207 -0.108409 13.517 -0.109172 13.0812 0.32665L7.72666 5.68121C7.60148 5.80639 7.39997 5.80784 7.27334 5.68121L1.91878 0.32665C1.48397 -0.10816 0.778141 -0.107298 0.344751 0.326093L0.326093 0.344751C-0.108409 0.779253 -0.109172 1.48296 0.32665 1.91878L5.68121 7.27334C5.80639 7.39852 5.80784 7.60003 5.68121 7.72666L0.32665 13.0812C-0.10816 13.516 -0.107298 14.2219 0.326093 14.6552L0.344751 14.6739C0.779253 15.1084 1.48296 15.1092 1.91878 14.6734L7.27334 9.31879C7.39852 9.19361 7.60003 9.19216 7.72666 9.31879L13.0812 14.6734C13.516 15.1082 14.2219 15.1073 14.6552 14.6739L14.6739 14.6552C15.1084 14.2207 15.1092 13.517 14.6734 13.0812L9.31879 7.72666C9.19361 7.60148 9.19216 7.39997 9.31879 7.27334L14.6734 1.91878Z" fill="#51758D"/>
</svg>
