<svg viewBox="0 0 329 35" fill="none" xmlns="http://www.w3.org/2000/svg">
<path d="M39.766 18.5023L39.7741 18.5121L39.7825 18.5216C41.0935 20.0108 41.4532 21.0221 41.548 21.8677C41.5985 22.318 41.5789 22.7642 41.5378 23.291C41.5307 23.3827 41.5228 23.4778 41.5146 23.5758C41.4776 24.0208 41.4355 24.528 41.4355 25.0656C41.4355 30.4959 36.9401 33.7269 33.5529 33.7269H1V24.1491H24.1461C24.1451 24.1491 24.145 24.1491 24.1459 24.1492C24.1504 24.1495 24.1808 24.1509 24.2554 24.1572C24.3347 24.164 24.433 24.1736 24.5569 24.1854C24.799 24.2085 25.1147 24.2381 25.461 24.2602C26.1317 24.3028 27.0073 24.3243 27.7454 24.1816C28.1103 24.111 28.5365 23.9836 28.8943 23.724C29.2921 23.4354 29.6004 22.9801 29.6112 22.3774C29.6208 21.8439 29.392 21.3425 29.0942 20.9006C28.787 20.4447 28.3361 19.9488 27.7403 19.4021C25.3535 17.2116 24.0704 15.2451 23.3565 13.5079C22.6417 11.7686 22.4719 10.1994 22.3917 8.73703C22.3255 7.52108 22.9041 5.55825 24.2353 3.89099C25.5379 2.25952 27.489 1 30.1117 1H78.1439V9.41266H64.0019H63.0019V10.4127V33.7269H53.7671V10.4127V9.41266H52.7671H38.6008H38.5834C38.0785 9.41266 37.4898 9.41265 36.9442 9.45135C36.4181 9.48866 35.8042 9.56815 35.3117 9.79119C35.0569 9.90664 34.7554 10.0952 34.5379 10.4124C34.3008 10.7582 34.2289 11.1614 34.2963 11.5574C34.409 12.2188 34.9049 12.8363 35.5115 13.4142L39.766 18.5023ZM88.8435 28.8651H88.152L87.9079 29.5122L86.3176 33.7278H77.0363L86.6114 1H103.226L112.305 33.7278H103.244L101.712 29.5229L101.473 28.8651H100.773H88.8435ZM90.4118 21.2354L90.0159 22.5282H91.3679H98.9394H100.268L99.9003 21.2512L96.2288 8.51479L95.2968 5.28185L94.3117 8.49899L90.4118 21.2354ZM145.052 20.5282H144.052V21.5282H145.052C144.052 21.5282 144.052 21.5295 144.052 21.5309L144.052 21.5336L144.052 21.5391L144.052 21.5507L144.053 21.5762C144.054 21.5942 144.055 21.614 144.057 21.6357C144.061 21.6791 144.067 21.7297 144.078 21.7865C144.1 21.9004 144.139 22.0383 144.207 22.1905C144.347 22.5015 144.593 22.8385 145 23.1411C145.794 23.7314 147.136 24.1491 149.411 24.1491C151.59 24.1491 155.362 24.1493 158.59 24.1496L162.755 24.1499L163.5 24.1499V33.7278H145.051C143.149 33.7278 142.368 33.6568 141.72 33.376C141.045 33.0836 140.441 32.5382 139.011 31.215C137.676 29.9802 135.7 27.8165 134.034 25.9321C133.207 24.9959 132.465 24.1385 131.929 23.5151C131.662 23.2035 131.446 22.9506 131.297 22.7758C131.261 22.7334 131.229 22.6956 131.201 22.6626C131.171 22.6277 131.146 22.5982 131.126 22.5745L131.082 22.5224L131.071 22.5093L131.068 22.5061L131.068 22.5053L131.068 22.5052L130.303 23.15L131.068 22.5051L129.303 20.4143V23.15V33.7278H118.913V1H142.297C144.14 1 146.35 2.03399 148.127 3.80565C149.89 5.56443 151.098 7.9256 151.098 10.4127C151.098 13.0421 150.32 15.6368 149.127 17.55C147.91 19.5021 146.413 20.5282 145.052 20.5282ZM129.305 15.0447V16.0447H130.305H138.169C139.495 16.0447 140.545 15.5419 141.234 14.7011C141.901 13.886 142.154 12.8456 142.105 11.8684C142.011 9.97563 140.686 7.79177 138.169 7.79177H130.305H129.305V8.79177V15.0447Z" stroke="#FBED10" stroke-width="2"/>
<path d="M181.355 11.7642L184.143 1H195.931L199.159 11.7998L200.117 15.0051L201.075 11.7999L204.304 1H213.236L203.726 33.5376H195.147L190.924 17.9281L190.016 14.5719L189.002 17.8977L184.235 33.5376H175.4L165.836 1H176.416L179.424 11.7821L180.423 15.3634L181.355 11.7642ZM225.442 28.8938H224.752L224.507 29.5389L222.917 33.7278H213.637L223.208 1.19929H239.825L248.902 33.7278H239.842L238.311 29.5498L238.071 28.8938H237.372H225.442ZM227.011 21.3093L226.612 22.6036H227.966H235.537H236.868L236.497 21.3252L232.827 8.66155L231.895 5.44797L230.911 8.64562L227.011 21.3093ZM266.694 23.2089V33.7205H256.306V1.19202H279.69C281.534 1.19202 283.745 2.22117 285.52 3.98234C287.284 5.73106 288.491 8.0768 288.491 10.5452C288.491 13.1579 287.713 15.7359 286.521 17.6368C285.304 19.5754 283.808 20.5973 282.443 20.5973H280.044L281.732 22.3011L282.443 21.5973C281.732 22.3011 281.732 22.3014 281.733 22.3017L281.733 22.3024L281.735 22.3038L281.738 22.307L281.746 22.3153L281.771 22.3388C281.79 22.3574 281.816 22.3819 281.849 22.4113C281.914 22.4702 282.006 22.5492 282.123 22.6414C282.356 22.8256 282.694 23.065 283.127 23.3028C283.993 23.7783 285.256 24.2553 286.838 24.2553C288.215 24.2553 291.553 24.258 294.547 24.2607L298.492 24.2645L299.73 24.2657L300.071 24.2661L300.16 24.2662L300.183 24.2662L300.189 24.2662H300.19L300.191 24.2662C300.191 24.2662 300.191 24.2662 300.192 23.2662L300.191 24.2662H300.192C300.19 24.2662 300.191 24.2662 300.194 24.2664C300.204 24.267 300.235 24.2687 300.301 24.2743C300.381 24.2811 300.479 24.2905 300.603 24.3023C300.845 24.3253 301.16 24.3547 301.506 24.3766C302.177 24.4191 303.052 24.4404 303.789 24.2986C304.153 24.2285 304.579 24.102 304.937 23.844C305.334 23.5572 305.645 23.1028 305.656 22.4992C305.665 21.9654 305.435 21.4649 305.137 21.0252C304.83 20.5714 304.379 20.0781 303.783 19.5345C301.396 17.3566 300.114 15.4023 299.401 13.6769C298.687 11.9495 298.517 10.3911 298.437 8.93765C298.368 7.69793 298.886 5.67407 300.136 3.96447C301.358 2.29207 303.216 1.00091 305.815 1.00091H328V9.36312L314.136 9.36228C313.608 9.36228 313.03 9.3773 312.504 9.444C312.013 9.50631 311.414 9.62966 310.952 9.94369C310.701 10.114 310.448 10.369 310.309 10.7353C310.169 11.107 310.186 11.4847 310.286 11.822C310.465 12.4229 310.937 13.009 311.556 13.5941L315.811 18.6536L315.819 18.6633L315.827 18.6728C317.197 20.2202 317.79 21.2295 318.07 22.0759C318.35 22.9201 318.35 23.6817 318.35 24.9006V24.9324C318.35 27.5687 317.056 29.7081 315.267 31.2149C313.458 32.7391 311.229 33.5376 309.549 33.5376L309.542 33.5376L282.441 33.7205C282.44 33.7205 282.438 33.7205 282.437 33.7205C280.539 33.7204 279.758 33.65 279.11 33.3708C278.435 33.0802 277.831 32.538 276.4 31.2226C275.066 29.9948 273.09 27.8434 271.424 25.9696C270.597 25.0386 269.854 24.186 269.319 23.5661C269.051 23.2563 268.835 23.0047 268.686 22.8309C268.612 22.7439 268.554 22.6764 268.515 22.6308L268.471 22.579L268.46 22.5659L268.458 22.5627L268.457 22.562L268.457 22.5618L267.694 23.2089L268.457 22.5618L266.694 20.4855V23.2089ZM266.693 15.1498V16.1498H267.693H275.559C276.883 16.1498 277.933 15.6509 278.622 14.8141C279.29 14.0023 279.544 12.9654 279.495 11.9912C279.401 10.1018 278.072 7.93265 275.559 7.93265H267.693H266.693V8.93265V15.1498Z" stroke="#FBED10" stroke-width="2"/>
</svg>
