<svg width="152" height="68" viewBox="0 0 152 68" fill="none" xmlns="http://www.w3.org/2000/svg">
<path fill-rule="evenodd" clip-rule="evenodd" d="M0 21.2567V31.888H31.0026C34.6061 31.888 39.2101 28.5457 39.2101 23.0166C39.2101 20.7928 40.0579 19.3422 37.4523 16.4008L33.4868 11.6877C31.2146 9.56145 33.7582 9.56145 35.6668 9.56145H48.7564V31.888H59.1372V9.56145H73.1283V0H27.823C22.3108 0 19.6155 5.30893 19.7671 8.07307C19.9196 10.8372 20.4265 14.3149 25.007 18.4926C29.1853 22.3022 22.9384 21.2567 22.3108 21.2567H0V21.2567ZM96.0826 0H79.3359L69.9479 31.8889H80.3957L82.0907 27.4237H93.1133L94.7496 31.8889H104.984L96.0826 0V0ZM84.4232 19.7683L88.0268 8.07307L91.4192 19.7683H84.4232V19.7683ZM138.054 21.2567C134.027 21.2567 134.027 19.7683 134.027 19.7683C137.478 19.7683 140.538 14.725 140.538 9.56145C140.538 4.39792 135.51 0 131.481 0H108.951V31.8889H120.399V21.2576C120.399 21.2576 125.274 26.9985 127.817 29.3374C130.362 31.6762 130.573 31.8889 134.026 31.8889H151.997V21.2576C151.998 21.2567 142.082 21.2567 138.054 21.2567V21.2567ZM127.667 13.8148H120.401V8.07307H127.667C130.998 8.07307 131.574 13.8148 127.667 13.8148ZM0 35.9279H11.7122L14.6798 46.5609L17.4354 35.9279H29.7307L32.9103 46.5609L36.0908 35.9279H46.2655L36.9378 67.8244H27.611L23.524 52.7262L18.9193 67.8244H9.38045L0 35.9279ZM70.3023 36.112H53.5555L44.1684 68H54.6154L56.3112 63.5357H67.3347L68.971 68H79.206L70.3023 36.112ZM58.6437 55.8795L62.2473 44.1842L65.6389 55.8795H58.6437ZM138.265 45.4978C136.359 45.4978 134.281 45.7213 136.554 47.8467L140.52 52.5607C143.125 55.5021 143.083 56.7283 143.083 58.9537C143.083 64.482 137.63 67.8244 134.027 67.8244L108.979 67.9933C105.528 67.9933 105.316 67.7815 102.772 65.4426C100.229 63.1037 95.3528 57.362 95.3528 57.362V67.9933H83.9063V36.1053H106.437C110.464 36.1053 115.493 40.504 115.493 45.6667C115.493 50.8311 112.433 55.8736 108.98 55.8736C108.98 55.8736 110.498 57.4048 113.042 57.4048C115.587 57.4048 125.381 57.4149 125.381 57.4149C126.008 57.4149 132.254 58.4604 128.076 54.6508C123.496 50.4731 122.989 46.9971 122.836 44.2329C122.684 41.4688 125.067 35.9288 130.576 35.9288H152V45.4986H138.265V45.4978V45.4978ZM102.619 49.9192H95.352V44.1775H102.619C105.952 44.1775 106.527 49.9192 102.619 49.9192Z" fill="black"/>
</svg>
