<svg width="23" height="23" viewBox="0 0 23 23" fill="none" xmlns="http://www.w3.org/2000/svg">
<path d="M23 20.3987L16.8752 14.274C17.8389 12.8183 18.3997 11.076 18.3997 9.20057C18.3997 4.11877 14.2809 0 9.19988 0C4.11874 0 0 4.11877 0 9.20057C0 14.281 4.11878 18.4011 9.19988 18.4011C11.0746 18.4011 12.8189 17.8383 14.2733 16.8752L20.398 23L23 20.3987ZM2.6069 9.20196C2.6069 5.56046 5.55909 2.60965 9.19988 2.60965C12.8414 2.60965 15.7935 5.56046 15.7935 9.20196C15.7935 12.8435 12.8413 15.7957 9.19988 15.7957C5.55909 15.7957 2.6069 12.8435 2.6069 9.20196Z" fill="#51758D"/>
</svg>
